<svg width="444" height="331" viewBox="0 0 444 331" fill="none" xmlns="http://www.w3.org/2000/svg">
<path d="M443.185 290.197H0V290.419H443.185V290.197Z" fill="#EBEBEB"/>
<path d="M75.8553 298.635H46.4988V298.857H75.8553V298.635Z" fill="#EBEBEB"/>
<path d="M189.391 296.234H151.693V296.455H189.391V296.234Z" fill="#EBEBEB"/>
<path d="M99.8582 301.747H82.8488V301.968H99.8582V301.747Z" fill="#EBEBEB"/>
<path d="M398.778 305.381H385.278V305.603H398.778V305.381Z" fill="#EBEBEB"/>
<path d="M377.381 305.381H346.987V305.603H377.381V305.381Z" fill="#EBEBEB"/>
<path d="M294.124 298.999H273.002V299.221H294.124V298.999Z" fill="#EBEBEB"/>
<path d="M210.07 250.665H38.9295C37.5872 250.665 36.2998 250.132 35.3507 249.183C34.4015 248.234 33.8683 246.946 33.8683 245.604V5.01685C33.88 3.68224 34.4184 2.40627 35.3662 1.46668C36.3141 0.527091 37.5948 -5.11665e-05 38.9295 3.72501e-09H210.07C211.412 3.72502e-09 212.699 0.533229 213.648 1.48238C214.598 2.43154 215.131 3.71886 215.131 5.06117V245.604C215.131 246.946 214.598 248.234 213.648 249.183C212.699 250.132 211.412 250.665 210.07 250.665ZM38.9295 0.177275C37.6466 0.179618 36.417 0.690252 35.5099 1.59734C34.6029 2.50443 34.0922 3.73404 34.0899 5.01685V245.604C34.0922 246.887 34.6029 248.117 35.5099 249.024C36.417 249.931 37.6466 250.441 38.9295 250.444H210.07C211.353 250.441 212.582 249.931 213.489 249.024C214.396 248.117 214.907 246.887 214.909 245.604V5.01685C214.907 3.73404 214.396 2.50443 213.489 1.59734C212.582 0.690252 211.353 0.179618 210.07 0.177275H38.9295Z" fill="#EBEBEB"/>
<path d="M401.8 250.665H230.642C229.301 250.663 228.015 250.129 227.066 249.18C226.117 248.232 225.583 246.946 225.581 245.604V5.01685C225.595 3.68297 226.134 2.40833 227.081 1.46924C228.029 0.530145 229.308 0.00225873 230.642 0H401.8C403.132 0.00461311 404.408 0.533815 405.352 1.47291C406.296 2.41199 406.832 3.68531 406.844 5.01685V245.604C406.844 246.943 406.313 248.228 405.367 249.177C404.422 250.125 403.139 250.661 401.8 250.665ZM230.642 0.177275C229.359 0.179618 228.13 0.690252 227.223 1.59734C226.315 2.50443 225.805 3.73404 225.803 5.01685V245.604C225.805 246.887 226.315 248.117 227.223 249.024C228.13 249.931 229.359 250.441 230.642 250.444H401.8C403.083 250.441 404.313 249.931 405.22 249.024C406.127 248.117 406.637 246.887 406.64 245.604V5.01685C406.637 3.73404 406.127 2.50443 405.22 1.59734C404.313 0.690252 403.083 0.179618 401.8 0.177275H230.642Z" fill="#EBEBEB"/>
<path d="M272.558 125.306L368.171 125.306V29.4363L272.558 29.4363V125.306Z" fill="#F0F0F0"/>
<path d="M272.559 29.4456H270.91V125.315H272.559V29.4456Z" fill="#E0E0E0"/>
<path d="M281.006 119.252L359.733 119.252V35.4901L281.006 35.4901V119.252Z" fill="#FAFAFA"/>
<path d="M312.003 101.046H336.936C342.343 101.046 345.959 96.6675 345.011 91.2961L340.163 63.5261C339.624 60.8392 338.192 58.4134 336.1 56.6433C334.008 54.8731 331.379 53.8626 328.64 53.7761H303.768C298.361 53.7761 294.745 58.1547 295.693 63.5261L300.542 91.2961C301.077 93.9737 302.499 96.3927 304.579 98.162C306.658 99.9313 309.274 100.947 312.003 101.046Z" fill="#F0F0F0"/>
<path d="M93.042 154.423H71.7692V285.65H93.042V154.423Z" fill="#F0F0F0"/>
<path d="M186.386 285.659H73.941V290.189H186.386V285.659Z" fill="#F0F0F0"/>
<path d="M93.042 285.659H188.256L188.256 154.432H93.042L93.042 285.659Z" fill="#F5F5F5"/>
<path d="M96.8715 246.189H184.427V222.754H96.8715V246.189Z" fill="#F0F0F0"/>
<path d="M96.8715 276.858H184.427V253.422H96.8715V276.858Z" fill="#F0F0F0"/>
<path d="M174.065 221.318H107.233C106.656 221.318 106.187 221.786 106.187 222.363V223.489C106.187 224.067 106.656 224.535 107.233 224.535H174.065C174.643 224.535 175.111 224.067 175.111 223.489V222.363C175.111 221.786 174.643 221.318 174.065 221.318Z" fill="#F5F5F5"/>
<path d="M174.065 251.995H107.233C106.656 251.995 106.187 252.463 106.187 253.041V254.167C106.187 254.744 106.656 255.213 107.233 255.213H174.065C174.643 255.213 175.111 254.744 175.111 254.167V253.041C175.111 252.463 174.643 251.995 174.065 251.995Z" fill="#F5F5F5"/>
<path d="M96.8715 185.092H184.427V161.656H96.8715V185.092Z" fill="#F0F0F0"/>
<path d="M96.8715 215.53H184.427V192.094H96.8715V215.53Z" fill="#F0F0F0"/>
<path d="M174.065 160.229H107.233C106.656 160.229 106.187 160.697 106.187 161.275V162.401C106.187 162.978 106.656 163.447 107.233 163.447H174.065C174.643 163.447 175.111 162.978 175.111 162.401V161.275C175.111 160.697 174.643 160.229 174.065 160.229Z" fill="#F5F5F5"/>
<path d="M174.065 190.649H107.233C106.656 190.649 106.187 191.118 106.187 191.695V192.821C106.187 193.399 106.656 193.867 107.233 193.867H174.065C174.643 193.867 175.111 193.399 175.111 192.821V191.695C175.111 191.118 174.643 190.649 174.065 190.649Z" fill="#F5F5F5"/>
<path d="M184.808 22.2125H65.4049V127.035H184.808V22.2125Z" fill="#E6E6E6"/>
<path d="M197.607 18.1353H57.6762C57.5207 18.1352 57.3666 18.166 57.223 18.2258C57.0794 18.2856 56.9491 18.3733 56.8395 18.4837C56.7299 18.5941 56.6432 18.7251 56.5845 18.8691C56.5258 19.0132 56.4962 19.1674 56.4973 19.323C56.4973 19.6356 56.6215 19.9355 56.8426 20.1566C57.0637 20.3777 57.3636 20.5019 57.6762 20.5019H197.607C197.921 20.5019 198.222 20.378 198.444 20.1571C198.667 19.9363 198.793 19.6365 198.795 19.323C198.795 19.008 198.67 18.7059 198.447 18.4831C198.225 18.2604 197.922 18.1353 197.607 18.1353Z" fill="#E6E6E6"/>
<path d="M189.878 22.2125H67.7719V127.035H189.878V22.2125Z" fill="#F0F0F0"/>
<path d="M184.808 127.035H65.4049V130.394H188.3L184.808 127.035Z" fill="#E6E6E6"/>
<path d="M198.317 127.035H76.2194L79.7028 130.394H201.809L198.317 127.035Z" fill="#F0F0F0"/>
<path d="M182.787 119.944V29.3035L74.8718 29.3035V119.944H182.787Z" fill="#FAFAFA"/>
<path d="M99.3712 119.944L140.995 29.3035H160.655L119.022 119.944H99.3712Z" fill="white"/>
<path d="M123.241 119.944L164.873 29.3035H172.532L130.908 119.944H123.241Z" fill="white"/>
<path d="M182.787 119.944V29.3035H181.883V119.944H182.787Z" fill="#E6E6E6"/>
<g opacity="0.4">
<path opacity="0.4" d="M74.9513 16.0179H62.746V102.519H74.9513V16.0179Z" fill="#F0F0F0"/>
<path opacity="0.4" d="M79.7109 16.0169H70.2002V102.518H79.7109V16.0169Z" fill="#E6E6E6"/>
<path opacity="0.4" d="M87.157 16.0169H74.9517V102.518H87.157V16.0169Z" fill="#F0F0F0"/>
<path opacity="0.4" d="M91.9165 16.0169H82.4058V102.518H91.9165V16.0169Z" fill="#E6E6E6"/>
<path opacity="0.4" d="M99.3617 16.0169H87.1564V102.518H99.3617V16.0169Z" fill="#F0F0F0"/>
</g>
<g opacity="0.4">
<path opacity="0.4" d="M178.249 16.0179H171.211V102.519H178.249V16.0179Z" fill="#F0F0F0"/>
<path opacity="0.4" d="M180.979 16.0169H175.501V102.518H180.979V16.0169Z" fill="#E6E6E6"/>
<path opacity="0.4" d="M185.278 16.0169H178.24V102.518H185.278V16.0169Z" fill="#F0F0F0"/>
<path opacity="0.4" d="M188.017 16.0169H182.54V102.518H188.017V16.0169Z" fill="#E6E6E6"/>
<path opacity="0.4" d="M192.316 16.0169H185.278V102.518H192.316V16.0169Z" fill="#F0F0F0"/>
</g>
<path d="M316.301 189.869C316.197 191.152 316.475 192.436 317.1 193.56C317.726 194.684 318.67 195.598 319.815 196.185C320.959 196.772 322.252 197.007 323.53 196.86C324.808 196.713 326.014 196.19 326.995 195.358C327.976 194.525 328.688 193.421 329.041 192.184C329.395 190.947 329.373 189.633 328.98 188.408C328.587 187.184 327.839 186.103 326.832 185.303C325.825 184.502 324.603 184.019 323.321 183.913C321.6 183.773 319.895 184.322 318.579 185.439C317.262 186.556 316.443 188.149 316.301 189.869Z" fill="#E0E0E0"/>
<path d="M334.391 200.231C337.95 199.707 340.411 196.397 339.888 192.837C339.364 189.277 336.054 186.816 332.494 187.34C328.934 187.864 326.473 191.174 326.997 194.734C327.521 198.293 330.831 200.755 334.391 200.231Z" fill="#E0E0E0"/>
<path d="M338.345 194.602C338.241 195.885 338.519 197.169 339.145 198.293C339.77 199.417 340.715 200.331 341.859 200.918C343.004 201.505 344.297 201.74 345.575 201.593C346.852 201.446 348.058 200.923 349.039 200.091C350.02 199.258 350.732 198.154 351.085 196.917C351.439 195.68 351.418 194.366 351.024 193.141C350.631 191.917 349.884 190.836 348.877 190.036C347.869 189.235 346.647 188.752 345.365 188.646C344.513 188.574 343.655 188.672 342.84 188.933C342.026 189.194 341.27 189.613 340.618 190.166C339.966 190.72 339.429 191.396 339.039 192.158C338.649 192.919 338.413 193.75 338.345 194.602Z" fill="#E0E0E0"/>
<path d="M304.202 193.282C304.098 194.564 304.376 195.848 305.001 196.972C305.627 198.097 306.571 199.01 307.716 199.597C308.86 200.185 310.153 200.42 311.431 200.272C312.709 200.125 313.915 199.602 314.896 198.77C315.877 197.938 316.589 196.833 316.942 195.596C317.296 194.36 317.274 193.046 316.881 191.821C316.488 190.596 315.741 189.515 314.733 188.715C313.726 187.915 312.504 187.431 311.222 187.325C309.502 187.186 307.796 187.734 306.48 188.851C305.164 189.968 304.344 191.561 304.202 193.282Z" fill="#E0E0E0"/>
<path d="M355.185 200.226C358.745 199.702 361.206 196.392 360.682 192.832C360.158 189.273 356.848 186.812 353.288 187.335C349.728 187.859 347.267 191.169 347.791 194.729C348.315 198.289 351.625 200.75 355.185 200.226Z" fill="#E0E0E0"/>
<path d="M306.147 193.257C308.882 190.918 309.203 186.805 306.864 184.071C304.525 181.336 300.413 181.016 297.678 183.354C294.944 185.693 294.623 189.806 296.961 192.54C299.3 195.275 303.413 195.596 306.147 193.257Z" fill="#E0E0E0"/>
<path d="M286.227 191.802C286.122 193.084 286.4 194.368 287.026 195.492C287.651 196.617 288.596 197.53 289.74 198.117C290.885 198.705 292.178 198.94 293.456 198.792C294.734 198.645 295.939 198.122 296.92 197.29C297.901 196.458 298.613 195.353 298.967 194.116C299.32 192.88 299.299 191.566 298.906 190.341C298.512 189.116 297.765 188.035 296.758 187.235C295.75 186.435 294.529 185.951 293.247 185.845C291.526 185.706 289.82 186.254 288.504 187.371C287.188 188.488 286.369 190.081 286.227 191.802Z" fill="#E0E0E0"/>
<path d="M278.79 193.556C278.79 193.556 279.907 220.209 322.736 220.209C365.566 220.209 366.682 193.556 366.682 193.556H278.79Z" fill="#F0F0F0"/>
<path d="M391.119 220.209H382.974V290.188H391.119V220.209Z" fill="#E6E6E6"/>
<path d="M393.291 220.209H388.496V290.188H393.291V220.209Z" fill="#F0F0F0"/>
<path d="M356.463 220.209H348.317V290.188H356.463V220.209Z" fill="#E6E6E6"/>
<path d="M357.987 220.209H353.192V290.188H357.987V220.209Z" fill="#F0F0F0"/>
<path d="M279.144 228.701H394.78V220.218H279.144V228.701Z" fill="#F0F0F0"/>
<path d="M243.805 220.209H235.659V290.188H243.805V220.209Z" fill="#E6E6E6"/>
<path d="M245.33 220.209H240.534V290.188H245.33V220.209Z" fill="#F0F0F0"/>
<path d="M234.206 228.701H275.661V220.218H234.206V228.701Z" fill="#E6E6E6"/>
<path d="M278.453 220.209H270.307V290.188H278.453V220.209Z" fill="#E6E6E6"/>
<path d="M280.634 220.209H275.838V290.188H280.634V220.209Z" fill="#F0F0F0"/>
<path d="M221.592 330.225C316.507 330.225 393.45 325.733 393.45 320.192C393.45 314.65 316.507 310.158 221.592 310.158C126.677 310.158 49.7339 314.65 49.7339 320.192C49.7339 325.733 126.677 330.225 221.592 330.225Z" fill="#F5F5F5"/>
<path d="M315.086 311.391C315.088 313.162 314.46 314.876 313.316 316.228C312.171 317.58 310.585 318.483 308.837 318.774C287.332 322.402 265.372 322.402 243.867 318.774C242.127 318.475 240.549 317.569 239.414 316.218C238.278 314.866 237.657 313.156 237.662 311.391V239.595H315.122L315.086 311.391Z" fill="#0086CF"/>
<path opacity="0.3" d="M237.617 240.889V250.967C242.28 252.695 257.587 253.963 276.352 253.963C295.116 253.963 310.45 252.695 315.086 250.967V240.889H237.617Z" fill="black"/>
<path d="M316.54 248.573C316.54 250.851 298.954 252.695 276.352 252.695C253.75 252.695 236.164 250.851 236.164 248.573L235.428 239.621H317.32L316.54 248.573Z" fill="#0086CF"/>
<path d="M276.352 243.734C298.954 243.734 317.276 241.892 317.276 239.621C317.276 237.35 298.954 235.508 276.352 235.508C253.751 235.508 235.428 237.35 235.428 239.621C235.428 241.892 253.751 243.734 276.352 243.734Z" fill="#0086CF"/>
<path opacity="0.3" d="M276.352 243.734C298.954 243.734 317.276 241.892 317.276 239.621C317.276 237.35 298.954 235.508 276.352 235.508C253.751 235.508 235.428 237.35 235.428 239.621C235.428 241.892 253.751 243.734 276.352 243.734Z" fill="black"/>
<path opacity="0.2" d="M248.006 306.338C247.21 306.336 246.447 306.018 245.884 305.455C245.321 304.892 245.003 304.13 245.001 303.333V262.17C245.003 261.374 245.321 260.611 245.884 260.048C246.447 259.485 247.21 259.168 248.006 259.166C248.801 259.17 249.563 259.488 250.125 260.051C250.688 260.613 251.006 261.375 251.011 262.17V303.333C251.006 304.129 250.688 304.89 250.125 305.453C249.563 306.015 248.801 306.333 248.006 306.338Z" fill="black"/>
<path opacity="0.2" d="M304.707 306.338C303.911 306.336 303.148 306.018 302.585 305.455C302.022 304.892 301.704 304.13 301.702 303.333V262.17C301.704 261.374 302.022 260.611 302.585 260.048C303.148 259.485 303.911 259.168 304.707 259.166C305.502 259.17 306.264 259.488 306.827 260.051C307.389 260.613 307.707 261.375 307.712 262.17V303.333C307.707 304.129 307.389 304.89 306.827 305.453C306.264 306.015 305.502 306.333 304.707 306.338Z" fill="black"/>
<path opacity="0.2" d="M285.801 306.338C285.005 306.333 284.244 306.015 283.681 305.453C283.119 304.89 282.801 304.129 282.796 303.333V262.17C282.801 261.375 283.119 260.613 283.681 260.051C284.244 259.488 285.005 259.17 285.801 259.166C286.597 259.168 287.36 259.485 287.923 260.048C288.486 260.611 288.803 261.374 288.806 262.17V303.333C288.803 304.13 288.486 304.892 287.923 305.455C287.36 306.018 286.597 306.336 285.801 306.338Z" fill="black"/>
<path opacity="0.2" d="M266.903 306.338C266.107 306.333 265.346 306.015 264.783 305.453C264.221 304.89 263.903 304.129 263.898 303.333V262.17C263.903 261.375 264.221 260.613 264.783 260.051C265.346 259.488 266.107 259.17 266.903 259.166C267.699 259.168 268.462 259.485 269.025 260.048C269.588 260.611 269.905 261.374 269.908 262.17V303.333C269.905 304.13 269.588 304.892 269.025 305.455C268.462 306.018 267.699 306.336 266.903 306.338Z" fill="black"/>
<path d="M170.962 74.5964C170.962 75.4098 170.721 76.205 170.269 76.8813C169.817 77.5577 169.175 78.0848 168.423 78.3961C167.672 78.7074 166.845 78.7888 166.047 78.6301C165.249 78.4714 164.517 78.0797 163.941 77.5046C163.366 76.9294 162.975 76.1965 162.816 75.3988C162.657 74.601 162.739 73.774 163.05 73.0225C163.361 72.271 163.888 71.6287 164.565 71.1768C165.241 70.7249 166.036 70.4836 166.85 70.4836C167.94 70.4836 168.986 70.9169 169.758 71.6882C170.529 72.4595 170.962 73.5056 170.962 74.5964Z" fill="#263238"/>
<path d="M163.544 75.1905C163.503 75.1916 163.464 75.1814 163.429 75.161C163.395 75.1406 163.367 75.1109 163.349 75.0753C163.077 74.5759 162.906 74.0279 162.846 73.4626C162.786 72.8972 162.838 72.3256 162.999 71.7803C163.16 71.235 163.426 70.7268 163.784 70.2846C164.141 69.8424 164.582 69.4749 165.081 69.2031C165.581 68.9313 166.129 68.7605 166.694 68.7005C167.259 68.6405 167.831 68.6924 168.376 68.8533C168.922 69.0143 169.43 69.281 169.872 69.6383C170.314 69.9957 170.682 70.4366 170.954 70.9359C170.98 70.9881 170.985 71.0482 170.969 71.1041C170.952 71.16 170.915 71.2076 170.865 71.2373C170.839 71.2513 170.811 71.2602 170.782 71.2633C170.753 71.2665 170.724 71.2639 170.696 71.2556C170.668 71.2474 170.642 71.2337 170.619 71.2153C170.596 71.197 170.578 71.1743 170.564 71.1487C170.071 70.2436 169.239 69.5713 168.251 69.2795C167.263 68.9878 166.199 69.1006 165.294 69.5931C164.389 70.0856 163.717 70.9174 163.425 71.9057C163.133 72.8939 163.246 73.9575 163.739 74.8626C163.753 74.8882 163.761 74.9163 163.765 74.9453C163.768 74.9743 163.765 75.0037 163.757 75.0317C163.749 75.0597 163.735 75.0858 163.717 75.1085C163.698 75.1312 163.676 75.15 163.65 75.1639C163.617 75.1809 163.581 75.19 163.544 75.1905Z" fill="#263238"/>
<path d="M159.546 93.3874C158.745 93.3842 157.96 93.1589 157.279 92.7367C156.598 92.3144 156.048 91.7117 155.689 90.9955C155.33 90.2792 155.176 89.4775 155.245 88.6793C155.315 87.8811 155.604 87.1176 156.08 86.4738C156.42 86.0186 156.846 85.6348 157.335 85.3443C157.823 85.0538 158.363 84.8623 158.926 84.7808C158.954 84.7758 158.984 84.7767 159.012 84.7834C159.04 84.7902 159.067 84.8027 159.09 84.8201C159.113 84.8376 159.133 84.8596 159.147 84.8849C159.161 84.9101 159.171 84.938 159.174 84.9669C159.181 85.0244 159.166 85.0826 159.131 85.129C159.097 85.1754 159.045 85.2063 158.988 85.2151C157.969 85.3644 157.05 85.9124 156.435 86.7385C155.82 87.5647 155.559 88.6013 155.708 89.6204C155.857 90.6394 156.405 91.5575 157.231 92.1725C158.058 92.7875 159.094 93.0492 160.113 92.8999C160.172 92.8905 160.232 92.9049 160.28 92.9398C160.329 92.9747 160.361 93.0273 160.37 93.0861C160.38 93.1448 160.365 93.2049 160.33 93.2532C160.296 93.3014 160.243 93.3337 160.184 93.3431C159.973 93.3711 159.759 93.3859 159.546 93.3874Z" fill="#263238"/>
<path d="M181.891 100.088C181.06 100.087 180.247 99.8435 179.551 99.3879C179.502 99.3552 179.467 99.3047 179.454 99.2469C179.44 99.1892 179.45 99.1285 179.48 99.0776C179.514 99.0296 179.565 98.9965 179.623 98.985C179.681 98.9734 179.741 98.9844 179.791 99.0156C180.655 99.5762 181.706 99.7707 182.713 99.5563C183.72 99.3419 184.601 98.7361 185.162 97.8722C185.723 97.0082 185.917 95.957 185.703 94.9496C185.488 93.9423 184.882 93.0614 184.019 92.5008C183.969 92.4681 183.934 92.4176 183.921 92.3598C183.908 92.3021 183.917 92.2414 183.948 92.1905C183.982 92.1425 184.033 92.1094 184.09 92.0979C184.148 92.0863 184.208 92.0973 184.258 92.1285C185.219 92.7541 185.893 93.735 186.132 94.8564C186.371 95.9777 186.156 97.1482 185.534 98.1115C185.227 98.5907 184.828 99.0038 184.359 99.3265C183.89 99.6492 183.362 99.875 182.804 99.9906C182.504 100.054 182.198 100.086 181.891 100.088Z" fill="#263238"/>
<path d="M164.545 87.422C167.757 87.422 170.36 84.8187 170.36 81.6074C170.36 78.3961 167.757 75.7928 164.545 75.7928C161.334 75.7928 158.731 78.3961 158.731 81.6074C158.731 84.8187 161.334 87.422 164.545 87.422Z" fill="#263238"/>
<path d="M170.003 94.8876C173.014 91.8761 173.014 86.9935 170.003 83.982C166.991 80.9705 162.109 80.9705 159.097 83.982C156.086 86.9935 156.086 91.8761 159.097 94.8876C162.109 97.8991 166.991 97.8991 170.003 94.8876Z" fill="#263238"/>
<path d="M165.361 107.765C170.07 107.765 173.887 103.947 173.887 99.2378C173.887 94.5286 170.07 90.7109 165.361 90.7109C160.651 90.7109 156.834 94.5286 156.834 99.2378C156.834 103.947 160.651 107.765 165.361 107.765Z" fill="#263238"/>
<path d="M182.19 101.775C183.272 97.1917 180.433 92.5993 175.85 91.5175C171.266 90.4357 166.674 93.2743 165.592 97.8576C164.51 102.441 167.349 107.033 171.932 108.115C176.516 109.197 181.108 106.358 182.19 101.775Z" fill="#263238"/>
<path d="M202.172 117.408C202.172 118.1 202.172 118.977 202.234 119.775C202.296 120.573 202.296 121.424 202.349 122.248C202.464 123.897 202.579 125.563 202.757 127.221C203.076 130.547 203.522 133.859 204.095 137.157C204.246 137.972 204.379 138.805 204.547 139.621L204.937 141.633C205.035 141.952 204.937 141.89 204.813 141.881C204.689 141.872 204.813 142.041 205.336 142.041C206.675 141.906 207.978 141.531 209.183 140.933C209.892 140.614 210.619 140.268 211.346 139.896C212.072 139.523 212.808 139.098 213.473 138.726L216.061 141.713C215.444 142.42 214.787 143.092 214.093 143.725C213.411 144.375 212.689 144.981 211.931 145.542C211.136 146.139 210.298 146.676 209.422 147.146C208.426 147.69 207.358 148.09 206.249 148.334C205.565 148.483 204.865 148.542 204.166 148.511C203.313 148.462 202.477 148.251 201.702 147.891C200.878 147.504 200.144 146.948 199.548 146.26C199.036 145.661 198.618 144.989 198.307 144.265C198.066 143.712 197.871 143.14 197.722 142.555L197.376 141.261C197.128 140.374 196.924 139.532 196.712 138.664C195.882 135.179 195.243 131.652 194.797 128.098C194.576 126.325 194.398 124.553 194.292 122.735C194.239 121.849 194.194 120.963 194.168 120.023C194.141 119.084 194.168 118.25 194.168 117.196L202.172 117.408Z" fill="#FFB573"/>
<path d="M197.873 107.853C205.433 113.641 205.132 124.552 205.132 124.552L191.606 127.787C191.606 127.787 187.458 116.814 189.142 112.799C190.897 108.615 193.618 104.591 197.873 107.853Z" fill="#0086CF"/>
<path opacity="0.7" d="M197.873 107.853C205.433 113.641 205.132 124.552 205.132 124.552L191.606 127.787C191.606 127.787 187.458 116.814 189.142 112.799C190.897 108.615 193.618 104.591 197.873 107.853Z" fill="white"/>
<path d="M212.968 139.745L215.201 135.987L220.803 141.978C220.803 141.978 216.788 144.549 212.622 142.714L212.968 139.745Z" fill="#FFB573"/>
<path d="M217.958 134.187L225.147 138.424L220.803 141.978L215.202 135.986L217.958 134.187Z" fill="#FFB573"/>
<path d="M155.549 313.65L163.278 314.395L168.082 296.286L160.344 295.542L155.549 313.65Z" fill="#FFB573"/>
<path d="M115.928 298.431L122.868 302.065L131.12 285.703L124.18 282.069L115.928 298.431Z" fill="#FFB573"/>
<path d="M124.721 298.884L118.516 292.581C118.413 292.471 118.273 292.403 118.122 292.39C117.971 292.376 117.821 292.42 117.701 292.511L112.001 296.703C111.863 296.814 111.75 296.953 111.669 297.111C111.587 297.269 111.54 297.442 111.53 297.619C111.52 297.796 111.548 297.973 111.61 298.139C111.673 298.305 111.77 298.456 111.895 298.582C114.093 300.745 115.263 301.676 117.993 304.45C119.677 306.152 123.134 310.167 125.456 312.525C127.779 314.883 130.225 312.711 129.472 311.523C126.086 306.205 125.518 302.863 125.306 300.16C125.267 299.679 125.06 299.227 124.721 298.884Z" fill="#263238"/>
<path d="M164.483 312.046H155.114C154.947 312.048 154.784 312.104 154.652 312.206C154.519 312.309 154.423 312.452 154.379 312.613L152.375 319.979C152.325 320.154 152.317 320.338 152.351 320.517C152.386 320.696 152.462 320.864 152.573 321.008C152.684 321.152 152.828 321.268 152.992 321.347C153.156 321.425 153.337 321.463 153.519 321.459C156.807 321.459 158.367 321.459 162.471 321.459H175.031C178.444 321.459 179.162 318.011 177.743 317.692C171.415 316.292 167.763 314.359 165.813 312.516C165.443 312.2 164.969 312.032 164.483 312.046Z" fill="#263238"/>
<path opacity="0.2" d="M168.073 296.295L165.6 305.629H157.667L160.335 295.551L168.073 296.295Z" fill="black"/>
<path opacity="0.2" d="M124.171 282.069L131.12 285.712L126.866 294.141L119.916 290.498L124.171 282.069Z" fill="black"/>
<path d="M195.586 106.736C195.586 106.736 199.007 108.234 187.538 153.616L155.682 150.86C157.339 137.945 158.039 129.95 154.148 102.801C158.689 102.269 163.263 102.064 167.834 102.189C172.679 102.262 177.513 102.68 182.299 103.439C186.781 104.313 191.216 105.413 195.586 106.736Z" fill="#0086CF"/>
<path opacity="0.7" d="M195.586 106.736C195.586 106.736 199.007 108.234 187.538 153.616L155.682 150.86C157.339 137.945 158.039 129.95 154.148 102.801C158.689 102.269 163.263 102.064 167.834 102.189C172.679 102.262 177.513 102.68 182.299 103.439C186.781 104.313 191.216 105.413 195.586 106.736Z" fill="white"/>
<path d="M167.834 101.932C167.834 101.932 166.061 101.932 163.889 101.932C162.604 103.909 168.029 109.679 174.925 115.352C176.591 110.184 179.215 110.202 179.215 110.202L167.834 101.932Z" fill="white"/>
<path d="M182.29 103.324C182.29 103.324 183.097 103.439 185.029 103.882C186.306 105.859 187.024 110.805 183.256 115.112C181.776 109.794 179.224 110.273 179.224 110.273L182.29 103.324Z" fill="white"/>
<path d="M170.67 86.0217C171.184 90.7549 171.352 99.3172 167.833 102.189C167.833 102.189 171.592 106.036 179.214 110.273C184.745 106.444 182.299 103.439 182.299 103.439C177.211 101.755 177.681 97.9167 178.895 94.3713L170.67 86.0217Z" fill="#FFB573"/>
<path opacity="0.2" d="M174.029 89.4339L178.895 94.371C178.597 95.1915 178.371 96.0369 178.222 96.8971C176.272 96.4451 173.435 94.4064 173.4 92.3146C173.434 91.3242 173.647 90.3482 174.029 89.4339Z" fill="black"/>
<path d="M188.947 70.5812C192.209 73.4707 193.166 80.5085 190.064 85.286C189.132 80.443 188.758 75.5093 188.947 70.5812Z" fill="#263238"/>
<path d="M169.677 76.0855C169.11 83.8767 168.711 87.1651 172.08 91.659C177.15 98.422 186.846 97.4027 189.727 89.9394C192.324 83.2119 192.812 71.6004 185.659 67.5054C184.087 66.5879 182.306 66.0891 180.486 66.0566C178.667 66.0242 176.869 66.4592 175.265 67.3201C173.662 68.181 172.306 69.439 171.328 70.9737C170.349 72.5084 169.781 74.2684 169.677 76.0855Z" fill="#FFB573"/>
<path d="M168.64 82.361C174.402 82.1394 177.593 74.6052 176.148 71.4232C182.68 74.8268 192.572 77.5037 191.473 73.125C189.993 67.2129 182.84 62.8786 174.038 66.034C168.942 68.25 164.581 73.125 168.64 82.361Z" fill="#263238"/>
<path d="M166.885 82.3517C167.131 83.8415 167.953 85.1752 169.172 86.0656C170.803 87.2268 172.292 85.9327 172.407 84.0447C172.514 82.334 171.796 79.6749 169.881 79.2672C169.462 79.1839 169.028 79.2069 168.62 79.334C168.212 79.4611 167.842 79.6883 167.545 79.995C167.247 80.3016 167.03 80.6779 166.915 81.0895C166.8 81.5011 166.79 81.9351 166.885 82.3517Z" fill="#FFB573"/>
<path d="M187.537 153.616C187.537 153.616 194.744 200.638 190.728 230.846C187.688 253.67 168.073 302.916 168.073 302.916L155.336 302.571C155.336 302.571 168.489 254.84 171.21 236.093C175.864 203.989 164.208 151.631 164.208 151.631L187.537 153.616Z" fill="#263238"/>
<path opacity="0.2" d="M175.111 163.251L168.312 173.967C170.359 186.673 171.659 199.489 172.203 212.347C181.758 195.24 177.273 172.301 175.111 163.251Z" fill="black"/>
<path d="M170.058 303.626L154.051 303.191L155.026 298.042L171.565 298.139L170.058 303.626Z" fill="#0086CF"/>
<path d="M180.571 153.111C180.571 153.111 175.253 205.177 163.1 233.505C153.271 256.373 129.835 292.954 129.835 292.954L120.475 287.476C120.475 287.476 135.543 246.801 142.98 231.555C161.124 194.177 144.247 164.191 155.682 150.895L180.571 153.111Z" fill="#263238"/>
<path d="M130.855 293.751L118.915 287.201L120.856 282.095L133.576 289.275L130.855 293.751Z" fill="#0086CF"/>
<path d="M155.362 148.954L153.678 151.684C153.554 151.888 153.794 152.145 154.166 152.172L187.573 155.061C187.857 155.061 188.114 154.964 188.14 154.786L188.681 151.959C188.681 151.764 188.477 151.578 188.167 151.551L155.903 148.759C155.804 148.744 155.702 148.754 155.608 148.788C155.514 148.822 155.429 148.879 155.362 148.954Z" fill="#0086CF"/>
<path d="M159.386 152.934L158.5 152.863C158.332 152.863 158.208 152.748 158.225 152.641L158.952 148.972C158.952 148.856 159.138 148.786 159.307 148.803L160.193 148.874C160.37 148.874 160.494 148.989 160.468 149.096L159.75 152.765C159.714 152.872 159.546 152.951 159.386 152.934Z" fill="#263238"/>
<path d="M185.118 155.158L184.232 155.087C184.054 155.087 183.93 154.972 183.957 154.866L184.684 151.196C184.684 151.09 184.861 151.01 185.029 151.028L185.916 151.099C186.084 151.099 186.208 151.214 186.19 151.32L185.464 154.99C185.446 155.114 185.251 155.176 185.118 155.158Z" fill="#263238"/>
<path d="M172.248 154.05L171.361 153.971C171.193 153.971 171.069 153.855 171.087 153.749L171.813 150.079C171.813 149.973 171.991 149.893 172.168 149.911L173.054 149.991C173.223 149.991 173.347 150.106 173.329 150.212L172.602 153.882C172.585 153.988 172.425 154.059 172.248 154.05Z" fill="#263238"/>
<path d="M181.882 79.9589C181.794 80.5882 182.06 81.1466 182.467 81.1998C182.875 81.253 183.283 80.7921 183.354 80.1628C183.425 79.5334 183.168 78.975 182.76 78.9218C182.352 78.8687 181.962 79.3296 181.882 79.9589Z" fill="#263238"/>
<path d="M188.991 80.9164C188.912 81.5457 189.178 82.1042 189.585 82.1573C189.993 82.2105 190.401 81.7496 190.472 81.1203C190.543 80.491 190.294 79.9325 189.887 79.8794C189.479 79.8262 189.08 80.2871 188.991 80.9164Z" fill="#263238"/>
<path d="M189.683 79.8879L191.26 79.6574C191.26 79.6574 190.339 80.7299 189.683 79.8879Z" fill="#263238"/>
<path d="M186.199 81.6073C186.569 83.1165 187.141 84.5686 187.901 85.9239C187.551 86.1103 187.164 86.218 186.767 86.2394C186.371 86.2608 185.974 86.1955 185.605 86.048L186.199 81.6073Z" fill="#ED893E"/>
<path d="M181.918 87.9275C180.672 87.5213 179.626 86.6562 178.993 85.5077C178.977 85.4711 178.976 85.4298 178.989 85.392C179.002 85.3542 179.029 85.3228 179.064 85.3039C179.102 85.2853 179.145 85.2824 179.185 85.2957C179.225 85.3089 179.258 85.3374 179.277 85.3748C179.671 86.0654 180.222 86.6532 180.886 87.0906C181.55 87.528 182.307 87.8026 183.097 87.8921C183.137 87.8921 183.176 87.908 183.204 87.9362C183.232 87.9645 183.248 88.0028 183.248 88.0428C183.248 88.0827 183.232 88.1211 183.204 88.1493C183.176 88.1776 183.137 88.1934 183.097 88.1934C182.696 88.1491 182.3 88.0599 181.918 87.9275Z" fill="#263238"/>
<path d="M178.647 76.3158C178.596 76.2945 178.55 76.2611 178.514 76.2183C178.485 76.1902 178.462 76.1565 178.446 76.1192C178.43 76.0818 178.422 76.0417 178.422 76.0012C178.422 75.9606 178.43 75.9205 178.446 75.8832C178.462 75.8459 178.485 75.8121 178.514 75.784C178.949 75.3956 179.471 75.1185 180.036 74.9764C180.601 74.8344 181.192 74.8317 181.759 74.9685C181.797 74.9797 181.833 74.9985 181.865 75.0238C181.896 75.0491 181.922 75.0805 181.941 75.116C181.96 75.1516 181.972 75.1905 181.975 75.2307C181.979 75.2708 181.975 75.3113 181.962 75.3497C181.94 75.4282 181.887 75.4946 181.816 75.5344C181.744 75.5742 181.66 75.5843 181.581 75.5624C181.115 75.4586 180.631 75.4672 180.168 75.5874C179.706 75.7076 179.279 75.936 178.922 76.2538C178.884 76.2833 178.839 76.3042 178.792 76.3149C178.744 76.3256 178.695 76.3259 178.647 76.3158Z" fill="#263238"/>
<path d="M191.978 78.2038C191.932 78.1858 191.89 78.1586 191.854 78.124C191.544 77.7594 191.151 77.473 190.71 77.2882C190.268 77.1034 189.788 77.0254 189.31 77.0604C189.27 77.0694 189.228 77.0697 189.188 77.0613C189.147 77.0529 189.109 77.036 189.075 77.0117C189.042 76.9874 189.014 76.9562 188.993 76.9203C188.973 76.8844 188.96 76.8445 188.956 76.8033C188.943 76.7223 188.963 76.6394 189.011 76.573C189.059 76.5065 189.132 76.4619 189.213 76.4488C189.792 76.3967 190.374 76.4838 190.912 76.7028C191.451 76.9217 191.929 77.2662 192.306 77.7074C192.349 77.7587 192.375 77.8224 192.379 77.8892C192.383 77.956 192.365 78.0223 192.328 78.0781C192.291 78.1339 192.237 78.1763 192.174 78.199C192.111 78.2216 192.042 78.2233 191.978 78.2038Z" fill="#263238"/>
<path d="M198.989 145.081C199.563 143.293 200.484 141.635 201.698 140.203C202.912 138.771 204.397 137.592 206.067 136.733C207.737 135.875 209.56 135.354 211.431 135.2C213.303 135.046 215.186 135.262 216.974 135.836C218.762 136.41 220.419 137.33 221.851 138.544C223.284 139.759 224.463 141.243 225.321 142.913C226.179 144.583 226.701 146.406 226.855 148.277C227.009 150.149 226.793 152.032 226.219 153.82L220.705 171.069L193.476 162.32L198.989 145.081Z" fill="#0086CF"/>
<path opacity="0.3" d="M198.989 145.081C199.563 143.293 200.484 141.635 201.698 140.203C202.912 138.771 204.397 137.592 206.067 136.733C207.737 135.875 209.56 135.354 211.431 135.2C213.303 135.046 215.186 135.262 216.974 135.836C218.762 136.41 220.419 137.33 221.851 138.544C223.284 139.759 224.463 141.243 225.321 142.913C226.179 144.583 226.701 146.406 226.855 148.277C227.009 150.149 226.793 152.032 226.219 153.82L220.705 171.069L193.476 162.32L198.989 145.081Z" fill="black"/>
<path d="M172.123 136.447L167.142 151.959C167.069 152.182 167.041 152.417 167.06 152.651C167.078 152.884 167.143 153.112 167.25 153.321C167.357 153.529 167.505 153.714 167.684 153.866C167.863 154.017 168.071 154.131 168.294 154.201L193.467 162.285L198.998 145.072C200.159 141.464 202.704 138.465 206.074 136.733C209.445 135.002 213.365 134.679 216.974 135.836L190.108 127.203C186.497 126.048 182.576 126.373 179.204 128.106C175.833 129.839 173.286 132.839 172.123 136.447Z" fill="#0086CF"/>
<path d="M185.632 148.21L192.572 126.609C192.596 126.531 192.603 126.449 192.592 126.369C192.582 126.288 192.554 126.211 192.511 126.142C192.469 126.073 192.411 126.015 192.344 125.97C192.276 125.925 192.2 125.895 192.12 125.882L185.029 124.836L184.143 127.637L189.31 129.294L183.46 147.5L185.632 148.21Z" fill="#263238"/>
<path d="M181.945 147.022C181.784 147.522 181.776 148.059 181.921 148.565C182.065 149.07 182.357 149.521 182.758 149.861C183.158 150.201 183.651 150.414 184.173 150.474C184.695 150.534 185.224 150.438 185.691 150.198C186.159 149.958 186.545 149.585 186.801 149.126C187.056 148.667 187.17 148.142 187.128 147.618C187.085 147.094 186.888 146.595 186.562 146.182C186.236 145.77 185.795 145.464 185.295 145.302C184.962 145.195 184.611 145.154 184.263 145.182C183.914 145.21 183.574 145.307 183.263 145.467C182.952 145.626 182.675 145.846 182.449 146.113C182.223 146.38 182.051 146.689 181.945 147.022Z" fill="#263238"/>
<path d="M194.78 164.864L229.703 176.077C229.829 176.118 229.963 176.134 230.096 176.123C230.229 176.113 230.359 176.076 230.477 176.015C230.596 175.954 230.702 175.87 230.788 175.768C230.874 175.666 230.939 175.548 230.979 175.421C231.022 175.294 231.038 175.16 231.028 175.027C231.018 174.893 230.981 174.763 230.92 174.644C230.859 174.525 230.775 174.42 230.672 174.334C230.57 174.248 230.451 174.184 230.323 174.145L193.468 162.312C193.303 162.824 193.349 163.381 193.595 163.86C193.841 164.338 194.267 164.7 194.78 164.864Z" fill="#0086CF"/>
<path opacity="0.2" d="M194.78 164.864L209.05 169.447C209.178 169.488 209.312 169.504 209.446 169.494C209.579 169.483 209.709 169.446 209.829 169.385C209.948 169.324 210.054 169.241 210.141 169.139C210.228 169.037 210.294 168.918 210.335 168.791C210.416 168.535 210.393 168.257 210.27 168.018C210.147 167.779 209.935 167.598 209.68 167.515L193.468 162.312C193.303 162.824 193.349 163.381 193.595 163.86C193.841 164.338 194.267 164.7 194.78 164.864Z" fill="black"/>
<path d="M157.897 115.316L157.41 115.857L156.86 116.486C156.488 116.912 156.115 117.373 155.761 117.807C155.034 118.693 154.343 119.642 153.696 120.599C151.018 124.39 148.909 128.553 147.438 132.955C147.083 134.054 146.755 135.153 146.498 136.279C146.41 136.607 146.401 136.74 146.357 136.891C146.35 137.02 146.35 137.151 146.357 137.281C146.342 137.419 146.342 137.559 146.357 137.697C146.357 137.857 146.658 138.229 147.385 138.584C148.259 138.977 149.179 139.257 150.124 139.417C152.403 139.779 154.712 139.93 157.02 139.869C159.431 139.869 161.877 139.656 164.323 139.399C166.77 139.142 169.252 138.823 171.654 138.459L172.62 142.297C167.673 143.908 162.582 145.038 157.418 145.674C154.7 146.028 151.951 146.088 149.22 145.852C147.658 145.705 146.124 145.341 144.664 144.77C143.787 144.419 142.964 143.948 142.217 143.37C141.338 142.68 140.613 141.814 140.09 140.826C139.19 138.973 138.949 136.869 139.407 134.861C139.62 133.505 139.93 132.202 140.294 130.837C140.989 128.216 141.915 125.663 143.059 123.205C144.207 120.742 145.543 118.371 147.057 116.114C147.819 114.988 148.635 113.898 149.485 112.826C149.92 112.294 150.372 111.771 150.815 111.248L151.533 110.477C151.79 110.202 151.994 109.98 152.348 109.644L157.897 115.316Z" fill="#FFB573"/>
<path d="M169.721 139.275L175.926 135.987L176.201 142.652C176.201 142.652 171.769 144.487 169.234 142.466L169.721 139.275Z" fill="#FFB573"/>
<path d="M181.04 135.481L180.11 141.624L176.21 142.652L175.935 135.987L181.04 135.481Z" fill="#FFB573"/>
<path d="M154.148 102.819C150.239 103.51 144.77 114.714 144.77 114.714L154.618 123.577C154.618 123.577 162.444 115.033 162.028 109.945C161.673 105.646 159.12 101.932 154.148 102.819Z" fill="#0086CF"/>
<path opacity="0.7" d="M154.148 102.819C150.239 103.51 144.77 114.714 144.77 114.714L154.618 123.577C154.618 123.577 162.444 115.033 162.028 109.945C161.673 105.646 159.12 101.932 154.148 102.819Z" fill="white"/>
<path d="M127.77 302.305C127.667 302.318 127.562 302.318 127.459 302.305C126.476 302.252 125.43 300.745 124.889 299.859C124.872 299.834 124.863 299.804 124.863 299.774C124.863 299.744 124.872 299.715 124.889 299.69C124.905 299.664 124.93 299.644 124.958 299.632C124.987 299.621 125.019 299.62 125.049 299.628C125.368 299.69 128.124 300.311 128.47 301.241C128.506 301.342 128.515 301.451 128.496 301.557C128.478 301.662 128.432 301.761 128.364 301.844C128.222 302.059 128.013 302.221 127.77 302.305ZM125.35 300.054C126.139 301.268 126.919 301.995 127.477 302.03C127.604 302.033 127.73 302.002 127.842 301.941C127.954 301.881 128.048 301.792 128.115 301.684C128.154 301.646 128.18 301.596 128.191 301.543C128.202 301.489 128.197 301.434 128.177 301.383C127.965 300.816 126.307 300.284 125.35 300.054Z" fill="#0086CF"/>
<path d="M127.486 299.858C126.669 300.083 125.811 300.119 124.977 299.965C124.951 299.956 124.928 299.941 124.909 299.921C124.89 299.901 124.877 299.876 124.871 299.849C124.859 299.826 124.852 299.8 124.852 299.774C124.852 299.748 124.859 299.722 124.871 299.699C124.942 299.637 126.555 298.059 127.681 298.139C127.82 298.141 127.957 298.175 128.08 298.24C128.203 298.305 128.309 298.398 128.39 298.511C128.487 298.615 128.546 298.748 128.559 298.889C128.572 299.03 128.537 299.172 128.461 299.291C128.206 299.581 127.864 299.78 127.486 299.858ZM125.35 299.716C126.236 299.841 127.894 299.619 128.239 299.114C128.292 299.034 128.337 298.91 128.177 298.706C128.124 298.628 128.052 298.564 127.969 298.52C127.886 298.475 127.793 298.451 127.699 298.449C126.927 298.396 125.811 299.3 125.35 299.716Z" fill="#0086CF"/>
<path d="M167.789 313.234C166.932 313.213 166.08 313.104 165.245 312.906C165.216 312.896 165.191 312.876 165.173 312.851C165.155 312.826 165.146 312.795 165.146 312.764C165.146 312.733 165.155 312.703 165.173 312.678C165.191 312.652 165.216 312.633 165.245 312.622C165.626 312.436 169.021 310.85 169.872 311.452C169.949 311.505 170.01 311.577 170.049 311.661C170.088 311.745 170.103 311.839 170.094 311.931C170.09 312.104 170.046 312.274 169.966 312.428C169.886 312.581 169.772 312.715 169.633 312.817C169.077 313.145 168.432 313.291 167.789 313.234ZM165.777 312.702C166.779 312.888 168.64 313.137 169.411 312.56C169.51 312.483 169.591 312.385 169.649 312.273C169.707 312.162 169.741 312.039 169.748 311.913C169.756 311.874 169.751 311.834 169.736 311.798C169.72 311.761 169.693 311.73 169.659 311.709C169.181 311.382 167.178 312.082 165.751 312.702H165.777Z" fill="#0086CF"/>
<path d="M165.272 312.888C165.241 312.897 165.207 312.897 165.175 312.888C165.154 312.868 165.138 312.843 165.128 312.815C165.119 312.787 165.117 312.758 165.122 312.729C165.122 312.587 165.928 309.245 167.781 309.458C168.242 309.52 168.366 309.742 168.392 309.928C168.508 310.814 166.372 312.489 165.352 312.915L165.272 312.888ZM167.595 309.724C166.425 309.724 165.742 311.674 165.512 312.454C166.62 311.869 168.171 310.477 168.073 309.937C168.073 309.892 168.073 309.768 167.728 309.733L167.595 309.724Z" fill="#0086CF"/>
<path d="M182.592 78.9308L184.161 78.7003C184.161 78.7003 183.23 79.7728 182.592 78.9308Z" fill="#263238"/>
<path d="M237.13 153.086L202.81 160.177C202.223 160.287 201.616 160.163 201.119 159.832C200.623 159.501 200.275 158.988 200.151 158.404L198.547 150.958L197.97 148.211L198.981 145.073C199.122 144.623 199.29 144.181 199.486 143.752C199.508 143.684 199.538 143.619 199.575 143.557C200.141 142.266 200.903 141.07 201.835 140.012L203.608 139.639L233.035 133.532C233.622 133.422 234.229 133.546 234.726 133.877C235.223 134.208 235.57 134.721 235.694 135.305L238.823 150.373C238.951 150.957 238.846 151.568 238.53 152.075C238.213 152.581 237.711 152.944 237.13 153.086Z" fill="#0086CF"/>
<path opacity="0.3" d="M235.429 134.507L218.871 151.348L215.326 149.912L201.534 144.319L199.593 143.53C200.159 142.239 200.921 141.043 201.853 139.984L203.626 139.612L233.053 133.505C233.504 133.415 233.971 133.462 234.395 133.641C234.818 133.819 235.178 134.121 235.429 134.507Z" fill="black"/>
<path d="M235.428 134.507L215.326 149.938L214.014 150.949L201.383 144.682L199.504 143.796C199.526 143.728 199.556 143.662 199.593 143.601C200.159 142.31 200.921 141.114 201.853 140.055L203.626 139.683L233.053 133.576C233.497 133.479 233.959 133.515 234.382 133.681C234.805 133.847 235.169 134.134 235.428 134.507Z" fill="#0086CF"/>
<path opacity="0.2" d="M235.428 134.507L215.326 149.938L214.014 150.949L201.383 144.682L199.504 143.796C199.526 143.728 199.556 143.662 199.593 143.601C200.159 142.31 200.921 141.114 201.853 140.055L203.626 139.683L233.053 133.576C233.497 133.479 233.959 133.515 234.382 133.681C234.805 133.847 235.169 134.134 235.428 134.507Z" fill="white"/>
<path d="M279.029 184.17L268.57 195.445C268.157 195.884 267.587 196.143 266.985 196.165C266.382 196.186 265.795 195.969 265.352 195.56L239.701 171.672C239.259 171.261 238.999 170.691 238.977 170.087C238.956 169.484 239.174 168.897 239.585 168.455L250.08 157.18C250.283 156.959 250.529 156.781 250.801 156.655C251.074 156.529 251.369 156.459 251.669 156.449C251.969 156.438 252.269 156.487 252.55 156.593C252.831 156.698 253.088 156.859 253.306 157.065L278.949 180.953C279.282 181.262 279.514 181.663 279.617 182.105C279.719 182.548 279.687 183.01 279.525 183.434C279.414 183.712 279.245 183.963 279.029 184.17Z" fill="#0086CF"/>
<path opacity="0.3" d="M279.49 183.478L256.161 179.676L250.745 156.63C251.158 156.44 251.619 156.376 252.068 156.447C252.518 156.518 252.936 156.72 253.271 157.029L278.914 180.917C279.262 181.232 279.505 181.647 279.608 182.106C279.711 182.565 279.67 183.044 279.49 183.478Z" fill="black"/>
<path d="M279.49 183.478L256.772 176.706L250.745 156.71C251.158 156.52 251.619 156.456 252.068 156.527C252.518 156.598 252.936 156.8 253.271 157.109L278.914 180.997C279.246 181.306 279.479 181.707 279.581 182.149C279.684 182.592 279.652 183.054 279.49 183.478Z" fill="#0086CF"/>
<path opacity="0.2" d="M279.49 183.478L256.772 176.706L250.745 156.71C251.158 156.52 251.619 156.456 252.068 156.527C252.518 156.598 252.936 156.8 253.271 157.109L278.914 180.997C279.246 181.306 279.479 181.707 279.581 182.149C279.684 182.592 279.652 183.054 279.49 183.478Z" fill="white"/>
<path d="M288.15 202.739L299.672 216.194C299.893 216.452 300.058 216.751 300.158 217.075C300.259 217.398 300.292 217.739 300.257 218.076C300.221 218.412 300.117 218.738 299.951 219.034C299.785 219.329 299.56 219.587 299.291 219.793L274.26 239.293C273.84 239.546 273.34 239.634 272.858 239.539C272.376 239.444 271.947 239.173 271.654 238.779L262.64 228.497C262.47 228.299 262.33 228.078 262.223 227.841C262.056 227.515 261.986 227.148 262.022 226.783C262.058 226.418 262.199 226.072 262.427 225.785L284.586 202.642C284.932 202.267 285.389 202.013 285.89 201.917C286.391 201.822 286.91 201.889 287.37 202.11C287.667 202.268 287.932 202.482 288.15 202.739Z" fill="#0086CF"/>
<path opacity="0.3" d="M287.37 202.137L281.866 226.618L262.259 227.868C262.092 227.542 262.022 227.174 262.058 226.81C262.094 226.445 262.235 226.098 262.463 225.812L284.622 202.668C284.966 202.302 285.416 202.053 285.91 201.957C286.403 201.862 286.914 201.924 287.37 202.137Z" fill="black"/>
<path d="M287.37 202.136L278.143 228.116L262.241 227.868C262.074 227.542 262.004 227.174 262.04 226.81C262.077 226.445 262.217 226.098 262.445 225.811L284.605 202.668C284.949 202.298 285.403 202.046 285.9 201.951C286.398 201.855 286.912 201.92 287.37 202.136Z" fill="#0086CF"/>
<path opacity="0.2" d="M287.37 202.136L278.143 228.116L262.241 227.868C262.074 227.542 262.004 227.174 262.04 226.81C262.077 226.445 262.217 226.098 262.445 225.811L284.605 202.668C284.949 202.298 285.403 202.046 285.9 201.951C286.398 201.855 286.912 201.92 287.37 202.136Z" fill="white"/>
</svg>
